<svg xmlns="http://www.w3.org/2000/svg" data-name="Video Marketing" viewBox="0 0 128 160" x="0px" y="0px"><title>Digital Marketing</title><circle cx="58.49" cy="80.46" r="1"/><circle cx="54.49" cy="80.46" r="1"/><circle cx="72.77" cy="64.78" r="1"/><circle cx="68.77" cy="64.78" r="1"/><circle cx="71.97" cy="94.43" r="1"/><circle cx="67.97" cy="94.43" r="1"/><path d="M86,28a7,7,0,1,0-7,7A7,7,0,0,0,86,28ZM74,28a5,5,0,1,1,5,5A5,5,0,0,1,74,28Z"/><path d="M47,30a7,7,0,1,0-7-7A7,7,0,0,0,47,30Zm0-12a5,5,0,1,1-5,5A5,5,0,0,1,47,18Z"/><path d="M125.64,75.51a1,1,0,0,0-1.42-.35l-3.77,2.49a1,1,0,1,0,1.1,1.67l1.56-1A60.61,60.61,0,0,1,4.51,76.49a1,1,0,1,0-2,.37,62.61,62.61,0,0,0,122.54,1.76l1,1.87a1,1,0,0,0,1.75-1Z"/><path d="M3.09,53a1,1,0,0,0,.5-.13L7.5,50.62a1,1,0,1,0-1-1.73l-1.63.94a60.61,60.61,0,0,1,118.62,1.69,1,1,0,0,0,1,.82l.18,0a1,1,0,0,0,.8-1.17A62.6,62.6,0,0,0,2.9,49.47l-1-1.94a1,1,0,1,0-1.77.93l2.09,4a1,1,0,0,0,.61.5A1,1,0,0,0,3.09,53Z"/><path d="M99.65,47.53a8,8,0,0,0-15.66-3c-3.92-.41-8-.69-12-.85a7,7,0,0,0-14-.07c-3.31.1-6.76.28-10.16.55A9.81,9.81,0,0,0,33.8,46c-6.06,1.29-10.25,3.11-10.25,5.59a2.3,2.3,0,0,0,.31,1.12v0L48.62,97.83v10c0,3.53,9.53,4.48,15.16,4.48s15.16-.94,15.16-4.48v-10l25.37-45.36a1,1,0,0,0,.1-.64,2.16,2.16,0,0,0,0-.22C104.44,50,102.62,48.63,99.65,47.53Zm-7.93-7a6,6,0,1,1-6,6A6,6,0,0,1,91.73,40.5ZM65,39a5,5,0,1,1-5,5A5,5,0,0,1,65,39ZM35.21,47.46a7.85,7.85,0,0,1,14.38,4.36,7.76,7.76,0,0,1-2.06,5.28,111.28,111.28,0,0,1-12.78-1.74,7.79,7.79,0,0,1,.46-7.9Zm-9.59,4.32,0,0a.59.59,0,0,1,0-.13c0-.9,2.37-2.14,7-3.27a9.5,9.5,0,0,0-.17,6.49c-3.62-.89-5.82-1.85-6.55-2.66Zm38.16,58.55c-8.09,0-12.87-1.63-13.16-2.48V100c2.87,1.76,9.19,2.29,13.35,2.29,4,0,10-.49,13-2.09v7.58C76.65,108.7,71.87,110.33,63.78,110.33ZM77.07,97.08a1,1,0,0,0-.11.32,1,1,0,0,0-.13.46c-.29.86-5,2.47-12.87,2.47S51.39,98.73,51.1,97.92c.29-.86,5-2.47,12.87-2.47a1,1,0,1,0,0-2c-4.49,0-11.5.62-14,2.73L45.52,88a90.32,90.32,0,0,0,17,1.38c1.8,0,14.24-.08,20.1-2.22Zm7.85-14c-3.7-3.38-20.32-3.49-22.42-3.49a1,1,0,1,0,0,2c12.65,0,20.16,1.83,21.11,2.93-1,1.1-8.46,2.93-21.11,2.93-7.45,0-14.23-.65-18.27-1.74l-7-12.83c5.38,1.64,15.72,2.68,27.57,2.68,10.33,0,19.78-.81,25.58-2.14ZM91.69,71c-5.22,1.56-15.7,2.57-26.94,2.57-15.09,0-25.9-1.69-29.06-3.4l-.43-.79c2.05-1.58,12.81-3.6,29.49-3.6a1,1,0,0,0,0-2c-12.36,0-26.17,1.23-30.42,3.91L27.61,55.4a36.62,36.62,0,0,0,6.15,1.79l.19,0a115.59,115.59,0,0,0,13.82,1.86,1,1,0,0,0,.18,0l.08,0c5.46.44,11.07.64,16,.64,12.18,0,28.8-1.22,36.38-4.34Zm10.73-19.18-.17.31c-1.73,2.21-14.78,5.66-38.24,5.66-5.21,0-9.89-.17-14.06-.46a9.84,9.84,0,0,0-.29-11.33q3.95-.28,8.53-.4a7,7,0,0,0,13.63.06c4.45.16,8.43.44,11.92.82,0,0,0,.05,0,.08a8,8,0,0,0,15.44,2.92c2.17.79,3.28,1.56,3.28,2.18A.6.6,0,0,1,102.41,51.78Z"/><text x="0" y="143" fill="#000000" font-size="5px" font-weight="bold" font-family="'Helvetica Neue', Helvetica, Arial-Unicode, Arial, Sans-serif">Created by priyanka</text><text x="0" y="148" fill="#000000" font-size="5px" font-weight="bold" font-family="'Helvetica Neue', Helvetica, Arial-Unicode, Arial, Sans-serif">from the Noun Project</text></svg>