<svg xmlns="http://www.w3.org/2000/svg" viewBox="0 0 83.47 146.3253125" x="0px" y="0px"><title>plant</title><g data-name="Camada 2"><g data-name="Camada 1"><path d="M83.285,44.47792a4.48954,4.48954,0,0,0-1.152-1.83033,6.463,6.463,0,0,0-2.3722-1.4508,18.4674,18.4674,0,0,0-6.216-.73542,2.154,2.154,0,0,0-.6001.07691,22.50914,22.50914,0,0,0,1.36219-1.79981c1.44525-2.03161,2.8258-4.58545,2.30383-7.16339a4.55136,4.55136,0,0,0-2.89453-3.4411,4.96761,4.96761,0,0,0-4.69452,1.23517,10.71158,10.71158,0,0,0-2.64588,4.28278c-1.15222,3.0393-2.32843,6.1037-3.24188,9.22985a41.11814,41.11814,0,0,0-8.08777,5.173l-.75354-.95319A1.99984,1.99984,0,1,0,51.155,49.582l.87946,1.11249A47.59339,47.59339,0,0,0,45.74174,58.063a32.20559,32.20559,0,0,0-1.90808-8.94061,34.4422,34.4422,0,0,0,8.02979-7.96033c3.03-4.31,4.53-8.59,4.34-12.36a7.69462,7.69462,0,0,0-.86-3.35,5.04372,5.04372,0,0,0-3.25995-2.59,5.89264,5.89264,0,0,0-5.01,1.46c-3.03,2.41-4.6,5.95-5.87,8.79a61.46364,61.46364,0,0,0-2.38971,6.37781c-.416-.59851-.79162-1.10852-1.127-1.54566.49432-2.3399,2.29639-11.05591,2.80664-15.4721.05-.42.12-.94.2-1.52.85-6.38,2.62-19.66-5.77-20.88a6.7456,6.7456,0,0,0-5.5,1.69,11.4006,11.4006,0,0,0-3.65,8.15,72.69754,72.69754,0,0,0,2.03,17.38,72.38052,72.38052,0,0,0-15.03-8.28,11.3765,11.3765,0,0,0-8.93.3,6.75173,6.75173,0,0,0-3.62995,4.46c-2.03,8.24,10.93,11.59,17.16,13.21.58.15,1.08.28,1.49.38995a131.02259,131.02259,0,0,0,15.30517,2.57117A37.34556,37.34556,0,0,1,41.39329,55.2754l-.21771-.0484a1.99984,1.99984,0,0,0-.86768,3.90442l1.51038.33563c.0531,2.59869.08276,5.2497.09668,7.80676a29.063,29.063,0,0,0-8.22186-3.946c-1.554-2.00116-6.243-7.97925-8.64551-10.37463-.24017-.24262-.52924-.53815-.85767-.88422C20.524,48.27046,12.886,40.36341,7.65422,45.29011a5.81034,5.81034,0,0,0-1.80054,4.59705A9.571,9.571,0,0,0,9.31,56.53529a59.03112,59.03112,0,0,0,11.04877,6.976A57.96909,57.96909,0,0,0,8.59886,68.56056a9.56017,9.56017,0,0,0-4.44721,6.02978,5.81792,5.81792,0,0,0,1.06623,4.82111,5.56946,5.56946,0,0,0,2.3609,1.82013c4.67291,1.87011,11.467-3.2685,15.03033-5.95221.37555-.28015.703-.53083.97748-.73242,3.08545-2.25385,6.171-4.709,9.18372-7.30024,3.57537,1.18232,8.21942,3.30164,9.15142,6.07264-.008,2.70819-.0288,5.11016-.05,6.97088H26.41307l-.6.72a23.21652,23.21652,0,0,0,2.23,32.05h-7.85a2,2,0,0,0,0,4h46.94a2,2,0,1,0,0-4h-7.85a23.2165,23.2165,0,0,0,2.23-32.05l-.6-.72H45.87175c.01526-1.34015.03015-2.95721.04034-4.76306l1.47583-.32794a1.9998,1.9998,0,1,0-.86761-3.90436l-.59546.13232c.001-1.85241-.005-3.80987-.02106-5.80542A43.15156,43.15156,0,0,1,64.8726,46.48731c.314.20075.6062.4242.81769.54413a25.77116,25.77116,0,0,0,3.74829,1.585,24.27788,24.27788,0,0,0,7.05762,1.65253,8.9212,8.9212,0,0,0,4.29956-.65008A4.81734,4.81734,0,0,0,82.89232,47.796,4.1092,4.1092,0,0,0,83.285,44.47792ZM44.85344,34.742c1.39-3.11,2.62-5.62,4.71-7.29a2.37114,2.37114,0,0,1,1.62-.69,1.18675,1.18675,0,0,1,.65.6,3.87164,3.87164,0,0,1,.37,1.65c.19,3.62-1.86,7.35-3.61,9.84A30.03189,30.03189,0,0,1,42.22355,45.314c-.19531-.40142-.39142-.78851-.59082-1.1679A59.48605,59.48605,0,0,1,44.85344,34.742Zm-24.92-1.22c-.43-.12-.96-.26-1.55-.41-4.21-1.09-15.37-3.99-14.29-8.37994a2.81929,2.81929,0,0,1,1.57-1.86005,6.79441,6.79441,0,0,1,2.97-.62,7.17075,7.17075,0,0,1,2.65.47,69.04774,69.04774,0,0,1,18.89,11.5l1.63,1.38995A107.02841,107.02841,0,0,1,19.93345,33.522Zm9.84-23.59a7.48568,7.48568,0,0,1,2.26-5.14,2.87107,2.87107,0,0,1,1.92-.79,2.55764,2.55764,0,0,1,.39.03c4.48.65,2.96,12.08,2.38,16.39-.08.61-.15,1.15-.2,1.59-.37006,3.23-1.52,9.09-2.24,12.66l-.92-2.63A66.996,66.996,0,0,1,29.77348,9.932ZM11.80656,53.411a5.58667,5.58667,0,0,1-1.95489-3.68689,1.81065,1.81065,0,0,1,.55017-1.52374,2.35568,2.35568,0,0,1,2.59155-.12982c2.88068,1.15289,6.77191,5.17,8.3183,6.7846.34784.35071.65173.67029.90893.92731,1.41095,1.40747,3.66681,4.13818,5.52076,6.44348l-.38941-.1344A53.23347,53.23347,0,0,1,11.80656,53.411ZM21.236,71.31031c-.29864.21631-.64782.472-1.04016.77912-2.43408,1.83331-9.83984,7.42181-11.81012,4.87262a1.80731,1.80731,0,0,1-.30914-1.58564,5.55949,5.55949,0,0,1,2.49689-3.34021,55.14106,55.14106,0,0,1,16.5036-6.09277l1.37018-.26813C26.068,67.66578,23.65147,69.5547,21.236,71.31031ZM59.013,84.29023A18.50141,18.50141,0,0,1,60.964,87.47981a19.52066,19.52066,0,0,1-7.94092,25.20044,4.451,4.451,0,0,1-1.1.38h-16.52a4.451,4.451,0,0,1-1.1-.38,19.21069,19.21069,0,0,1-8.34-9.32.142.142,0,0,1-.01995-.06,18.72278,18.72278,0,0,1-1.43006-5.94,3.5604,3.5604,0,0,1-.03-.46,16.70825,16.70825,0,0,1,1.48-8.52,19.11656,19.11656,0,0,1,2.35-4.09ZM68.40342,39.612c.19-.56.97-2.58,1.17011-3.14008.55621-1.53241,1.07062-3.64123,2.62408-4.49054.793-.43353.3949,1.407.30585,1.66065A19.05323,19.05323,0,0,1,68.40342,39.612Zm10.46,6.51c-2.42.65-5.28-.25-7.95-1.28a22.58082,22.58082,0,0,1,3.01-.31l.23-.01c1.07-.02,4.35-.07,5.2.82a.4618.4618,0,0,1,.14.39A1.14311,1.14311,0,0,1,78.86345,46.122Z"/></g></g></svg>